HIERARCHY
ROOT Hips
{
    OFFSET   0.000000   0.000000   0.000000
    CHANNELS 6 Xposition Yposition Zposition Zrotation Xrotation Yrotation
    JOINT Chest
    {
        OFFSET   0.000000   8.007240   0.000000
        CHANNELS 3 Zrotation Xrotation Yrotation
        JOINT Chest2
        {
            OFFSET   0.000000  22.077100   0.000000
            CHANNELS 3 Zrotation Xrotation Yrotation
            JOINT Neck
            {
                OFFSET   0.000000  23.254800   0.000000
                CHANNELS 3 Zrotation Xrotation Yrotation
                JOINT Head
                {
                    OFFSET   0.000000  14.370000   1.956600
                    CHANNELS 3 Zrotation Xrotation Yrotation
                    End Site
                    {
                        OFFSET   0.000000  19.566000   0.000000
                    }
                }
            }
            JOINT LeftCollar
            {
                OFFSET   3.911900  19.017000  -0.467064
                CHANNELS 3 Zrotation Xrotation Yrotation
                JOINT LeftShoulder
                {
                    OFFSET  10.383700   0.000000   0.000000
                    CHANNELS 3 Zrotation Xrotation Yrotation
                    JOINT LeftElbow
                    {
                        OFFSET  26.662100   0.001476   0.000517
                        CHANNELS 3 Zrotation Xrotation Yrotation
                        JOINT LeftWrist
                        {
                            OFFSET  28.869000  -0.000025  -0.000106
                            CHANNELS 3 Zrotation Xrotation Yrotation
                            JOINT LeftFinger0
                            {
                                OFFSET   2.044660  -2.323460   3.252850
                                CHANNELS 3 Zrotation Xrotation Yrotation
                                JOINT LeftFinger01
                                {
                                    OFFSET   3.088130   0.000000   0.000000
                                    CHANNELS 3 Zrotation Xrotation Yrotation
                                    JOINT LeftFinger02
                                    {
                                        OFFSET   2.639460   0.000000   0.000000
                                        CHANNELS 3 Zrotation Xrotation Yrotation
                                        End Site
                                        {
                                            OFFSET   2.582190   0.000000   0.000000
                                        }
                                    }
                                }
                            }
                            JOINT LeftFinger1
                            {
                                OFFSET   8.364480   0.000000   3.252850
                                CHANNELS 3 Zrotation Xrotation Yrotation
                                JOINT LeftFinger11
                                {
                                    OFFSET   4.646930   0.000000   0.000000
                                    CHANNELS 3 Zrotation Xrotation Yrotation
                                    JOINT LeftFinger12
                                    {
                                        OFFSET   2.323460   0.000000   0.000000
                                        CHANNELS 3 Zrotation Xrotation Yrotation
                                        End Site
                                        {
                                            OFFSET   2.273050   0.000000   0.000000
                                        }
                                    }
                                }
                            }
                            JOINT LeftFinger2
                            {
                                OFFSET   8.364490   0.000015   1.078090
                                CHANNELS 3 Zrotation Xrotation Yrotation
                                JOINT LeftFinger21
                                {
                                    OFFSET   5.111620   0.000000   0.000000
                                    CHANNELS 3 Zrotation Xrotation Yrotation
                                    JOINT LeftFinger22
                                    {
                                        OFFSET   2.788160   0.000016   0.000000
                                        CHANNELS 3 Zrotation Xrotation Yrotation
                                        End Site
                                        {
                                            OFFSET   2.727660   0.000000   0.000000
                                        }
                                    }
                                }
                            }
                            JOINT LeftFinger3
                            {
                                OFFSET   7.899780   0.000017  -1.078090
                                CHANNELS 3 Zrotation Xrotation Yrotation
                                JOINT LeftFinger31
                                {
                                    OFFSET   4.646930   0.000000   0.000000
                                    CHANNELS 3 Zrotation Xrotation Yrotation
                                    JOINT LeftFinger32
                                    {
                                        OFFSET   2.323470   0.000000   0.000000
                                        CHANNELS 3 Zrotation Xrotation Yrotation
                                        End Site
                                        {
                                            OFFSET   2.273050   0.000000   0.000000
                                        }
                                    }
                                }
                            }
                            JOINT LeftFinger4
                            {
                                OFFSET   7.435090   0.000000  -3.252850
                                CHANNELS 3 Zrotation Xrotation Yrotation
                                JOINT LeftFinger41
                                {
                                    OFFSET   3.717550   0.000000   0.000000
                                    CHANNELS 3 Zrotation Xrotation Yrotation
                                    JOINT LeftFinger42
                                    {
                                        OFFSET   1.858770   0.000000   0.000000
                                        CHANNELS 3 Zrotation Xrotation Yrotation
                                        End Site
                                        {
                                            OFFSET   1.818440   0.000000   0.000000
                                        }
                                    }
                                }
                            }
                        }
                    }
                }
            }
            JOINT RightCollar
            {
                OFFSET  -3.911900  19.017000  -0.467063
                CHANNELS 3 Zrotation Xrotation Yrotation
                JOINT RightShoulder
                {
                    OFFSET -10.383700   0.000019   0.000000
                    CHANNELS 3 Zrotation Xrotation Yrotation
                    JOINT RightElbow
                    {
                        OFFSET -26.662100   0.001175   0.000102
                        CHANNELS 3 Zrotation Xrotation Yrotation
                        JOINT RightWrist
                        {
                            OFFSET -28.869000   0.000016  -0.000079
                            CHANNELS 3 Zrotation Xrotation Yrotation
                            JOINT RightFinger0
                            {
                                OFFSET  -2.044660  -2.323490   3.252850
                                CHANNELS 3 Zrotation Xrotation Yrotation
                                JOINT RightFinger01
                                {
                                    OFFSET  -3.088140   0.000000   0.000000
                                    CHANNELS 3 Zrotation Xrotation Yrotation
                                    JOINT RightFinger02
                                    {
                                        OFFSET  -2.639460   0.000000   0.000000
                                        CHANNELS 3 Zrotation Xrotation Yrotation
                                        End Site
                                        {
                                            OFFSET  -2.582190   0.000000   0.000000
                                        }
                                    }
                                }
                            }
                            JOINT RightFinger1
                            {
                                OFFSET  -8.364480   0.000000   3.252850
                                CHANNELS 3 Zrotation Xrotation Yrotation
                                JOINT RightFinger11
                                {
                                    OFFSET  -4.646930   0.000000   0.000000
                                    CHANNELS 3 Zrotation Xrotation Yrotation
                                    JOINT RightFinger12
                                    {
                                        OFFSET  -2.323470   0.000000   0.000000
                                        CHANNELS 3 Zrotation Xrotation Yrotation
                                        End Site
                                        {
                                            OFFSET  -2.273050   0.000000   0.000000
                                        }
                                    }
                                }
                            }
                            JOINT RightFinger2
                            {
                                OFFSET  -8.364480   0.000000   1.078090
                                CHANNELS 3 Zrotation Xrotation Yrotation
                                JOINT RightFinger21
                                {
                                    OFFSET  -5.111620   0.000000   0.000000
                                    CHANNELS 3 Zrotation Xrotation Yrotation
                                    JOINT RightFinger22
                                    {
                                        OFFSET  -2.788160   0.000000   0.000000
                                        CHANNELS 3 Zrotation Xrotation Yrotation
                                        End Site
                                        {
                                            OFFSET  -2.727660   0.000000   0.000000
                                        }
                                    }
                                }
                            }
                            JOINT RightFinger3
                            {
                                OFFSET  -7.899780   0.000000  -1.078090
                                CHANNELS 3 Zrotation Xrotation Yrotation
                                JOINT RightFinger31
                                {
                                    OFFSET  -4.646930   0.000000   0.000000
                                    CHANNELS 3 Zrotation Xrotation Yrotation
                                    JOINT RightFinger32
                                    {
                                        OFFSET  -2.323470   0.000000   0.000000
                                        CHANNELS 3 Zrotation Xrotation Yrotation
                                        End Site
                                        {
                                            OFFSET  -2.273050   0.000000   0.000000
                                        }
                                    }
                                }
                            }
                            JOINT RightFinger4
                            {
                                OFFSET  -7.435090   0.000000  -3.252850
                                CHANNELS 3 Zrotation Xrotation Yrotation
                                JOINT RightFinger41
                                {
                                    OFFSET  -3.717550   0.000000   0.000000
                                    CHANNELS 3 Zrotation Xrotation Yrotation
                                    JOINT RightFinger42
                                    {
                                        OFFSET  -1.858770   0.000000   0.000000
                                        CHANNELS 3 Zrotation Xrotation Yrotation
                                        End Site
                                        {
                                            OFFSET  -1.818440   0.000000   0.000000
                                        }
                                    }
                                }
                            }
                        }
                    }
                }
            }
        }
    }
    JOINT LeftHip
    {
        OFFSET   9.783040   0.000000   0.000000
        CHANNELS 3 Zrotation Xrotation Yrotation
        JOINT LeftKnee
        {
            OFFSET   0.000032 -41.789100  -0.002222
            CHANNELS 3 Zrotation Xrotation Yrotation
            JOINT LeftAnkle
            {
                OFFSET   0.000087 -41.133200  -0.000135
                CHANNELS 3 Zrotation Xrotation Yrotation
                JOINT LeftToe
                {
                    OFFSET   0.000000  -6.358960  14.674500
                    CHANNELS 3 Zrotation Xrotation Yrotation
                    End Site
                    {
                        OFFSET   0.000000   0.000000   3.913200
                    }
                }
            }
        }
    }
    JOINT RightHip
    {
        OFFSET  -9.783040   0.000000   0.000000
        CHANNELS 3 Zrotation Xrotation Yrotation
        JOINT RightKnee
        {
            OFFSET   0.000047 -41.789100  -0.000896
            CHANNELS 3 Zrotation Xrotation Yrotation
            JOINT RightAnkle
            {
                OFFSET  -0.000117 -41.133300  -0.000248
                CHANNELS 3 Zrotation Xrotation Yrotation
                JOINT RightToe
                {
                    OFFSET   0.000000  -6.358970  14.674500
                    CHANNELS 3 Zrotation Xrotation Yrotation
                    End Site
                    {
                        OFFSET   0.000000   0.000000   3.913200
                    }
                }
            }
        }
    }
}
MOTION
Frames: 6
Frame Time:   0.016667
  0.276094  89.539200   0.780519  -3.710340 -11.834300  -3.318260   1.106800   6.735380  -0.138305   2.253740  13.466800  -0.413021   6.434940   1.140170  -0.119733  10.581500   2.226500  -3.504400  -4.841300  -2.471190  -0.826947 -75.008000  14.857300   0.484114  -1.422290  -5.482290 -17.509100  12.873100  -3.599970  -3.540690  40.613700  29.779600 -61.088500 -26.315700   0.000601   0.000362  -8.158200   0.004715  -0.001856 -29.871500   3.618420  -6.269160 -24.598900   0.004078  -0.003140 -17.216900   0.004470   0.001185 -27.453400  -4.002690   7.652190 -30.343200  -0.004378  -0.001577 -20.208500  -0.003134  -0.003362 -26.535900  -4.005170   7.962070 -26.814500  -0.003509   0.008865 -17.858400  -0.002051   0.001494 -29.732900  -4.444190   7.726690 -45.049300  -0.004793  -0.001377 -30.002800  -0.000910   0.002328   8.471900  -4.870670   6.844480  60.207100  12.358100 -13.207700 -20.940200 -31.804200  96.241700 -63.855000 -64.922600 -54.236100 -33.495800  40.727900  74.436500  50.375700  -0.003997  -0.025161  25.280100  -0.012569  -0.021456  26.879800  10.036900  18.906600  23.374300   0.000401  -0.023599  16.334500  -0.006146  -0.014727  26.062400   5.107680   9.569640  42.791200  -0.014160  -0.054129  27.747000  -0.040320  -0.038880  55.243700   0.814238   0.440776  55.452500  -0.114376  -0.080030  41.546200  -0.101212   0.022270  61.233500  -8.451630  -4.598690  93.626700  -0.056307   0.055021  62.449700   0.021745   0.054242   2.269310  13.990500  -0.775977   0.835656   0.187480   7.782640  -0.508433  -2.940150  -1.600680  -0.000000   0.000000  -0.000000   4.840820  10.175300  -0.111006  -2.603180   5.830370 -18.274900   0.869292  -4.264950   4.536040  -0.000000   0.000000   0.000000
  0.276057  89.538900   0.797046  -3.709850 -11.830800  -3.317480   1.108910   6.723260  -0.142393   2.258380  13.442500  -0.421250   6.429710   1.134440  -0.119917  10.573800   2.213900  -3.469900  -4.845900  -2.455950  -0.812223 -75.014100  14.854200   0.477395  -1.408280  -5.471300 -17.518700  12.873600  -3.610770  -3.529400  40.616300  29.790200 -61.078900 -26.328100   0.000629   0.000372  -8.164030   0.004714  -0.001573 -29.865500   3.616740  -6.269160 -24.597500   0.004036  -0.003133 -17.218200   0.004431   0.001155 -27.448700  -4.016170   7.679230 -30.328300  -0.004395  -0.001559 -20.198600  -0.003030  -0.003324 -26.527200  -4.011540   7.977820 -26.807100  -0.003494   0.009019 -17.853500  -0.002048   0.001553 -29.731300  -4.452740   7.741300 -45.049000  -0.004881  -0.001330 -30.002600  -0.000974   0.002367   8.480240  -4.845770   6.855310  60.246200  12.188800 -13.221900 -20.650100 -31.721800  96.223300 -63.495300 -65.867100 -54.320500 -33.213000  40.590400  74.098800  50.956000   0.009243  -0.011313  26.081000   0.013212   0.004213  30.810700  10.636100  17.196100  26.538900   0.000362  -0.026731  18.590800  -0.009220  -0.016223  27.666400   4.848410   8.382920  48.704000  -0.010150  -0.047329  31.554700  -0.069603  -0.047931  62.032700  -1.682670  -0.728315  61.988100  -0.140818  -0.070343  46.500600  -0.106021   0.042709  69.879900  -9.486050  -3.532250 103.137000  -0.055200   0.056477  71.580900   0.025323   0.054810   2.268140  14.001900  -0.771610   0.834847   0.171096   7.781580  -0.506285  -2.943170  -1.601980  -0.000000   0.000000  -0.000000   4.843010  10.176000  -0.105337  -2.601050   5.837510 -18.273000   0.868981  -4.274100   4.526440  -0.000000   0.000000  -0.000000
  0.276155  89.538700   0.811916  -3.709020 -11.826200  -3.315440   1.111700   6.715400  -0.141991   2.263840  13.426700  -0.420674   6.426480   1.124670  -0.120059  10.568500   2.194740  -3.453810  -4.849460  -2.461250  -0.836896 -75.027100  14.835600   0.483464  -1.397160  -5.441760 -17.518300  12.866800  -3.618500  -3.513290  40.598500  29.781900 -61.083900 -26.353400   0.000642   0.000382  -8.176630   0.004719   0.007018 -29.893100   3.610930  -6.251660 -24.619400   0.004004  -0.003127 -17.234100   0.004381   0.001124 -27.450700  -4.027750   7.700290 -30.349200  -0.004411  -0.001540 -20.212600  -0.002926  -0.003282 -26.536200  -4.022830   7.996710 -26.817700  -0.003480   0.009167 -17.860600  -0.002046   0.001612 -29.742500  -4.465500   7.759290 -45.067700  -0.004966  -0.001282 -30.015100  -0.001039   0.002408   8.494240  -4.859950   6.843240  60.279800  12.060100 -13.213600 -20.580100 -31.724400  95.999100 -64.427800 -67.573800 -55.967900 -34.024900  41.048000  75.131700  50.097900   0.013719  -0.013774  24.952000   0.022348   0.018659  31.756500  10.864300  16.762000  27.305900  -0.000026  -0.034493  18.991000  -0.014823  -0.022577  34.297600   4.642620   6.541570  52.973800  -0.039110  -0.045203  35.487800  -0.096201  -0.028870  70.054300  -3.851510  -1.137300  70.040400  -0.097814  -0.018608  52.540900  -0.052296   0.041578  77.803500  -9.860590  -2.198420 108.529000  -0.024058   0.025158  77.884400   0.012062   0.024375   2.267280  13.999400  -0.768764   0.833993   0.182908   7.780990  -0.503862  -2.957440  -1.603210  -0.000000   0.000000  -0.000000   4.843500  10.175400  -0.100350  -2.598220   5.847440 -18.273500   0.868974  -4.286210   4.515790  -0.000000   0.000000   0.000000
  0.276337  89.538500   0.825854  -3.707760 -11.820700  -3.311720   1.115570   6.709320  -0.141589   2.271570  13.414500  -0.420105   6.421500   1.112110  -0.120123  10.560200   2.170560  -3.440320  -4.856310  -2.472850  -0.864228 -75.040500  14.819700   0.491734  -1.390100  -5.420280 -17.517700  12.850900  -3.621580  -3.499110  40.575900  29.771200 -61.086600 -26.371100   0.000679   0.000415  -8.185550   0.004731   0.015367 -29.920600   3.605260  -6.234160 -24.641300   0.003974  -0.003119 -17.248800   0.004330   0.001095 -27.454000  -4.034310   7.711730 -30.370100  -0.004428  -0.001521 -20.226500  -0.002821  -0.003237 -26.546100  -4.030600   8.008680 -26.828300  -0.003467   0.009313 -17.867700  -0.002045   0.001672 -29.753700  -4.474000   7.770770 -45.086500  -0.005046  -0.001232 -30.027600  -0.001103   0.002449   8.510180  -4.880770   6.831240  60.296000  11.990800 -13.208200 -20.709100 -31.764700  95.655400 -65.984200 -69.440600 -58.356400 -35.146300  41.601900  76.624200  48.273300   0.014651  -0.016234  22.820200   0.024488   0.028324  32.737500  10.997600  16.326600  28.091300  -0.000692  -0.043193  19.418700  -0.018691  -0.030337  44.455300   4.249220   4.463740  57.035200  -0.072800  -0.044862  39.842700  -0.111624  -0.001586  78.039900  -5.087250  -1.231220  78.099300  -0.037385   0.024824  58.574400   0.001429   0.035358  84.638800  -9.974410  -0.953423 110.941000   0.006135  -0.006162  81.100900  -0.002736  -0.006060   2.266390  13.995300  -0.767302   0.832885   0.199860   7.780240  -0.501314  -2.975420  -1.604820   0.000000   0.000000  -0.000000   4.843110  10.174900  -0.094925  -2.595690   5.856630 -18.275100   0.869042  -4.299080   4.504950   0.000000   0.000000  -0.000000
  0.276492  89.538300   0.838166  -3.705950 -11.813900  -3.305840   1.121330   6.705230  -0.141669   2.283140  13.406400  -0.420513   6.411530   1.096470  -0.120121  10.543600   2.140380  -3.419470  -4.874420  -2.492820  -0.867340 -75.044900  14.842700   0.493279  -1.396660  -5.435270 -17.510500  12.823800  -3.591390  -3.495230  40.576100  29.767200 -61.077900 -26.366000   0.004102   0.002111  -8.182980   0.004738   0.015342 -29.911300   3.603890  -6.234890 -24.633600   0.003935  -0.003105 -17.243400   0.004288   0.001069 -27.452600  -4.030760   7.705490 -30.360100  -0.004444  -0.001501 -20.219800  -0.002719  -0.003186 -26.540900  -4.025370   8.000210 -26.822500  -0.003454   0.009461 -17.863800  -0.002044   0.001733 -29.746800  -4.468070   7.762740 -45.075000  -0.005119  -0.001183 -30.019900  -0.001167   0.002489   8.529750  -4.893160   6.844670  60.295700  12.006200 -13.213000 -20.789800 -31.798200  95.373100 -67.141800 -71.060700 -60.262400 -35.484100  41.537400  77.330400  45.930800   0.001069   0.000234  20.512600   0.016797   0.033858  35.743800  11.142100  15.057200  30.468300  -0.001390  -0.050548  21.472700  -0.018605  -0.035377  56.192000   3.362200   2.450950  61.119400  -0.078318  -0.051665  44.697500  -0.096494   0.012244  84.280600  -5.067140  -0.753445  84.319200  -0.013812   0.013867  63.238800   0.000980   0.018665  88.384600 -10.004100  -0.288318 110.471000   0.005659  -0.006105  80.641000  -0.004370  -0.004926   2.264790  13.991800  -0.767142   0.832723   0.208610   7.779500  -0.499272  -2.996290  -1.607380  -0.000000   0.000000   0.000000   4.842220  10.175500  -0.086358  -2.593720   5.859870 -18.284800   0.869206  -4.311130   4.497470   0.000000   0.000000   0.000000
  0.276729  89.538200   0.850991  -3.703770 -11.805600  -3.298780   1.127090   6.698840  -0.142237   2.294850  13.393600  -0.422570   6.398590   1.082160  -0.120109  10.522100   2.112850  -3.391630  -4.893330  -2.506460  -0.867791 -75.051100  14.865700   0.494995  -1.403740  -5.450370 -17.499200  12.805700  -3.561190  -3.492900  40.590000  29.767700 -61.064500 -26.350900   0.008740   0.004385  -8.175440   0.004762   0.015174 -29.889300   3.603480  -6.240110 -24.615700   0.003899  -0.003087 -17.230900   0.004247   0.001043 -27.449300  -4.024450   7.694660 -30.337700  -0.004459  -0.001481 -20.204900  -0.002617  -0.003130 -26.528600  -4.016470   7.986990 -26.809100  -0.003441   0.009609 -17.854800  -0.002043   0.001793 -29.732300  -4.458140   7.750220 -45.051500  -0.005187  -0.001132 -30.004300  -0.001231   0.002526   8.545440  -4.898810   6.866150  60.287100  12.021600 -13.217700 -20.848800 -31.794600  95.211400 -68.667800 -72.125100 -62.461300 -35.558300  41.260100  77.641200  43.224100  -0.017671   0.016702  18.058400   0.004524   0.035482  39.839100  11.249000  13.363700  33.692700  -0.002120  -0.054441  24.435100  -0.018004  -0.037729  66.402100   2.371390   0.903476  64.953200  -0.079106  -0.058469  49.065700  -0.066644   0.017851  87.974500  -5.026950  -0.186027  87.982100  -0.001421   0.002911  65.986500   0.000530   0.002000  89.655000 -10.008300  -0.058079 110.000000   0.004634  -0.005796  80.000000  -0.004782  -0.002877   2.262680  13.989700  -0.766987   0.832825   0.212221   7.776710  -0.497111  -3.008940  -1.609890  -0.000000   0.000000   0.000000   4.841190  10.176100  -0.079040  -2.592570   5.860870 -18.293300   0.869244  -4.322040   4.488840   0.000000   0.000000  -0.000000
